<?xml version="1.0" encoding="UTF-8" standalone="no"?>
<!DOCTYPE svg PUBLIC "-//W3C//DTD SVG 1.1//EN" "http://www.w3.org/Graphics/SVG/1.1/DTD/svg11.dtd">
<svg width="100%" height="100%" viewBox="0 0 1000 1000" version="1.1" xmlns="http://www.w3.org/2000/svg" xmlns:xlink="http://www.w3.org/1999/xlink" xml:space="preserve" xmlns:serif="http://www.serif.com/" style="fill-rule:evenodd;clip-rule:evenodd;stroke-linejoin:round;stroke-miterlimit:2;">
    <g transform="matrix(4.517181,0,0,4.517181,-396.63621,-626.875988)">
        <g transform="matrix(1.561599,0,0,1.561599,-82.335949,-121.203228)">
            <path d="M143.502,251.755C144.925,233.099 160.533,218.383 179.551,218.383C198.568,218.383 214.176,233.099 215.599,251.755L143.502,251.755Z" style="fill:url(#_Linear1);"/>
        </g>
        <g transform="matrix(1.561599,0,0,1.561599,-82.335949,-121.203228)">
            <path d="M142.172,251.654C143.647,232.309 159.831,217.049 179.551,217.049C199.271,217.049 215.454,232.309 216.929,251.654C216.957,252.024 216.83,252.389 216.577,252.662C216.325,252.934 215.97,253.089 215.599,253.089L143.502,253.089C143.131,253.089 142.776,252.934 142.524,252.662C142.271,252.389 142.144,252.024 142.172,251.654ZM144.972,250.421L214.129,250.421C212.091,233.14 197.376,219.717 179.551,219.717C161.725,219.717 147.01,233.14 144.972,250.421Z" style="fill:none;"/>
        </g>
        <g transform="matrix(1.259869,0,0,0.636995,-58.124798,101.235072)">
            <path d="M273.309,322.513C272.863,322.645 272.459,323.157 272.013,323.29C271.922,323.317 266.974,319.021 258.52,319.917C256.248,320.158 250.534,321.307 246.338,324.577C245.301,325.386 239.191,331.672 228.994,330.96C220.639,330.376 215.937,325.449 214.605,324.446C207.69,319.238 197.191,318.672 189.413,325.401C180.416,333.186 168.214,332.566 160.034,325.561C159.748,325.316 157.012,322.482 150.636,320.677C147.566,319.808 141.885,319.066 136.604,321.36C134.202,322.404 133.079,323.405 133.039,323.388C132.637,323.219 132.292,322.674 131.889,322.505C132.145,321.773 132.213,320.826 132.469,320.094C132.473,320.081 139.793,312.007 150.517,313.141C151.687,313.265 154.747,313.52 159.071,316.385C161.773,318.175 164.316,321.546 170.899,322.819C175.771,323.762 182.24,322.922 187.482,318.503C187.579,318.422 194.893,311.045 206.2,312.897C213.54,314.099 217.218,318.3 219.25,319.678C226.54,324.623 236.486,324.493 243.739,318.218C250.755,312.147 257.076,312.695 261.088,313.556C267.742,314.986 271.984,319.365 272.679,320.052C272.779,320.151 272.727,320.236 273.309,322.513Z" style="fill:url(#_Linear2);"/>
        </g>
        <g transform="matrix(1.259869,0,0,0.636995,-58.124798,119.401736)">
            <path d="M245.346,321.106C245.122,321.85 245.035,322.734 244.812,323.478C244.772,323.608 239.51,329.568 232.892,330.845C232.417,330.937 223.824,332.295 215.959,325.561C215.877,325.49 209.752,319.368 200.006,320.619C193.089,321.507 189.582,325.407 187.651,326.805C181.106,331.544 173.915,331.237 172.043,330.789C171.434,330.643 169.075,330.19 165.838,328.164C162.776,326.248 160.307,323.422 160.299,323.388C160.116,322.659 160.035,321.843 159.852,321.114C160.276,320.928 160.661,320.468 161.085,320.282C161.132,320.261 162.467,321.312 165.222,322.148C167.419,322.816 169.39,322.95 169.754,322.975C171.448,323.091 171.446,323.066 173.917,323.152C182.739,323.46 187.798,318.178 188.972,317.263C195.464,312.204 207.326,309.524 217.544,318.365C224.211,324.133 231.958,323.099 232.684,323.101C235.362,323.111 239.829,322.898 243.828,320.454C243.92,320.397 244.009,320.242 244.103,320.283C244.746,320.559 244.703,320.829 245.346,321.106Z" style="fill:url(#_Linear3);"/>
        </g>
        <path d="M87.806,284.904C88.382,284.832 88.569,283.864 89.144,283.793C89.61,283.735 115.55,282.449 120.993,282.404C123.372,282.384 125.75,282.404 128.129,282.404L276.286,282.404C283.297,282.515 308.034,283.762 308.084,283.805C308.481,284.138 308.786,284.571 309.183,284.904C308.611,284.973 308.432,285.946 307.86,286.015C307.27,286.087 283.115,287.296 276.286,287.404C273.847,287.442 271.407,287.404 268.967,287.404L120.993,287.404C115.55,287.359 89.61,286.073 89.144,286.015C88.569,285.944 88.382,284.975 87.806,284.904Z" style="fill:url(#_Linear4);"/>
        <g transform="matrix(2.852734,0,0,2.852734,-366.93404,-330.484688)">
            <path d="M198.05,174.973C198.113,174.973 198.548,174.973 198.574,175.564C198.837,181.537 198.851,182.694 198.576,188.86C198.557,189.292 198.451,189.267 198.054,189.435C198.051,189.437 197.694,189.286 197.69,189.282C197.596,189.187 197.544,189.048 197.527,188.915C197.524,188.896 197.354,185.283 197.326,183.036C197.292,180.378 197.488,176.442 197.526,175.564C197.552,174.973 197.987,174.973 198.05,174.973Z" style="fill:url(#_Linear5);"/>
        </g>
        <g transform="matrix(2.023591,-0.657505,0.657505,2.023591,-341.569921,-25.17291)">
            <path d="M198.05,182.028C197.876,181.74 197.519,181.592 197.345,181.304C197.342,181.299 197.117,179.743 197.079,178.773C197.034,177.608 197.301,175.875 197.348,175.526C197.387,175.235 197.347,175.208 197.554,175.001C197.56,174.995 198.051,174.793 198.055,174.794C198.219,174.862 198.42,174.875 198.546,175.001C198.753,175.208 198.713,175.235 198.752,175.526C199.099,178.095 199.133,178.565 198.755,181.304C198.683,181.832 198.422,181.646 198.05,182.028Z" style="fill:url(#_Linear6);"/>
        </g>
        <g transform="matrix(2.30791,-1.676795,1.676795,2.30791,-613.126367,116.656979)">
            <path d="M198.05,174.973C198.113,174.973 198.548,174.973 198.574,175.564C198.837,181.537 198.851,182.694 198.576,188.86C198.557,189.292 198.451,189.267 198.054,189.435C198.051,189.437 197.694,189.286 197.69,189.282C197.596,189.187 197.544,189.048 197.527,188.915C197.524,188.896 197.354,185.283 197.326,183.036C197.292,180.378 197.488,176.442 197.526,175.564C197.552,174.973 197.987,174.973 198.05,174.973Z" style="fill:url(#_Linear7);"/>
        </g>
        <g transform="matrix(1.250648,-1.72137,1.72137,1.250648,-413.148603,348.750742)">
            <path d="M198.05,182.028C197.876,181.74 197.519,181.592 197.345,181.304C197.342,181.299 197.117,179.743 197.079,178.773C197.034,177.608 197.301,175.875 197.348,175.526C197.387,175.235 197.347,175.208 197.554,175.001C197.56,174.995 198.051,174.793 198.055,174.794C198.219,174.862 198.42,174.875 198.546,175.001C198.753,175.208 198.713,175.235 198.752,175.526C199.099,178.095 199.133,178.565 198.755,181.304C198.683,181.832 198.422,181.646 198.05,182.028Z" style="fill:url(#_Linear8);"/>
        </g>
        <g transform="matrix(0.881543,-2.713111,2.713111,0.881543,-549.476866,623.110406)">
            <path d="M198.05,174.973C198.113,174.973 198.548,174.973 198.574,175.564C198.837,181.537 198.851,182.694 198.576,188.86C198.557,189.292 198.451,189.267 198.054,189.435C198.051,189.437 197.694,189.286 197.69,189.282C197.596,189.187 197.544,189.048 197.527,188.915C197.524,188.896 197.354,185.283 197.326,183.036C197.292,180.378 197.488,176.442 197.526,175.564C197.552,174.973 197.987,174.973 198.05,174.973Z" style="fill:url(#_Linear9);"/>
        </g>
        <g transform="matrix(0.881543,2.713111,-2.713111,0.881543,596.397624,-451.553234)">
            <path d="M198.05,174.973C198.113,174.973 198.548,174.973 198.574,175.564C198.837,181.537 198.851,182.694 198.576,188.86C198.557,189.292 198.451,189.267 198.054,189.435C198.051,189.437 197.694,189.286 197.69,189.282C197.596,189.187 197.544,189.048 197.527,188.915C197.524,188.896 197.354,185.283 197.326,183.036C197.292,180.378 197.488,176.442 197.526,175.564C197.552,174.973 197.987,174.973 198.05,174.973Z" style="fill:url(#_Linear10);"/>
        </g>
        <g transform="matrix(1.250648,1.72137,-1.72137,1.250648,313.866811,-333.083996)">
            <path d="M198.05,182.028C197.876,181.74 197.519,181.592 197.345,181.304C197.342,181.299 197.117,179.743 197.079,178.773C197.034,177.608 197.301,175.875 197.348,175.526C197.387,175.235 197.347,175.208 197.554,175.001C197.56,174.995 198.051,174.793 198.055,174.794C198.219,174.862 198.42,174.875 198.546,175.001C198.753,175.208 198.713,175.235 198.752,175.526C199.099,178.095 199.133,178.565 198.755,181.304C198.683,181.832 198.422,181.646 198.05,182.028Z" style="fill:url(#_Linear11);"/>
        </g>
        <g transform="matrix(2.30791,1.676795,-1.676795,2.30791,95.063014,-547.521677)">
            <path d="M198.05,174.973C198.113,174.973 198.548,174.973 198.574,175.564C198.837,181.537 198.851,182.694 198.576,188.86C198.557,189.292 198.451,189.267 198.054,189.435C198.051,189.437 197.694,189.286 197.69,189.282C197.596,189.187 197.544,189.048 197.527,188.915C197.524,188.896 197.354,185.283 197.326,183.036C197.292,180.378 197.488,176.442 197.526,175.564C197.552,174.973 197.987,174.973 198.05,174.973Z" style="fill:url(#_Linear12);"/>
        </g>
        <g transform="matrix(2.023591,0.657505,-0.657505,2.023591,-63.874743,-285.610605)">
            <path d="M198.05,182.028C197.876,181.74 197.519,181.592 197.345,181.304C197.342,181.299 197.117,179.743 197.079,178.773C197.034,177.608 197.301,175.875 197.348,175.526C197.387,175.235 197.347,175.208 197.554,175.001C197.56,174.995 198.051,174.793 198.055,174.794C198.219,174.862 198.42,174.875 198.546,175.001C198.753,175.208 198.713,175.235 198.752,175.526C199.099,178.095 199.133,178.565 198.755,181.304C198.683,181.832 198.422,181.646 198.05,182.028Z" style="fill:url(#_Linear13);"/>
        </g>
    </g>
    <defs>
        <linearGradient id="_Linear1" x1="0" y1="0" x2="1" y2="0" gradientUnits="userSpaceOnUse" gradientTransform="matrix(62.715306,-31.350976,31.350976,62.715306,146.16973,249.73402)"><stop offset="0" style="stop-color:rgb(179,120,62);stop-opacity:1"/><stop offset="1" style="stop-color:rgb(241,208,133);stop-opacity:1"/></linearGradient>
        <linearGradient id="_Linear2" x1="0" y1="0" x2="1" y2="0" gradientUnits="userSpaceOnUse" gradientTransform="matrix(139.814006,0,0,10.560001,132.687745,321.809483)"><stop offset="0" style="stop-color:rgb(179,120,62);stop-opacity:1"/><stop offset="0.5" style="stop-color:rgb(241,208,133);stop-opacity:1"/><stop offset="1" style="stop-color:rgb(179,120,62);stop-opacity:1"/></linearGradient>
        <linearGradient id="_Linear3" x1="0" y1="0" x2="1" y2="0" gradientUnits="userSpaceOnUse" gradientTransform="matrix(83.888403,0,0,10.560001,160.650546,321.809483)"><stop offset="0" style="stop-color:rgb(179,120,62);stop-opacity:1"/><stop offset="0.5" style="stop-color:rgb(241,208,133);stop-opacity:1"/><stop offset="1" style="stop-color:rgb(179,120,62);stop-opacity:1"/></linearGradient>
        <linearGradient id="_Linear4" x1="0" y1="0" x2="1" y2="0" gradientUnits="userSpaceOnUse" gradientTransform="matrix(219.166636,0,0,0.000002,88.917428,284.90382)"><stop offset="0" style="stop-color:rgb(179,120,62);stop-opacity:1"/><stop offset="0.5" style="stop-color:rgb(241,208,133);stop-opacity:1"/><stop offset="1" style="stop-color:rgb(179,120,62);stop-opacity:1"/></linearGradient>
        <linearGradient id="_Linear5" x1="0" y1="0" x2="1" y2="0" gradientUnits="userSpaceOnUse" gradientTransform="matrix(0,-36.230042,36.230042,0,197.575085,211.173539)"><stop offset="0" style="stop-color:rgb(179,120,62);stop-opacity:1"/><stop offset="0.5" style="stop-color:rgb(241,208,133);stop-opacity:1"/><stop offset="1" style="stop-color:rgb(179,120,62);stop-opacity:1"/></linearGradient>
        <linearGradient id="_Linear6" x1="0" y1="0" x2="1" y2="0" gradientUnits="userSpaceOnUse" gradientTransform="matrix(16.994331,-49.261372,49.261372,16.994331,195.460603,214.040466)"><stop offset="0" style="stop-color:rgb(179,120,62);stop-opacity:1"/><stop offset="0.5" style="stop-color:rgb(241,208,133);stop-opacity:1"/><stop offset="1" style="stop-color:rgb(179,120,62);stop-opacity:1"/></linearGradient>
        <linearGradient id="_Linear7" x1="0" y1="0" x2="1" y2="0" gradientUnits="userSpaceOnUse" gradientTransform="matrix(23.408832,-31.026742,31.026742,23.408832,195.552452,212.610372)"><stop offset="0" style="stop-color:rgb(179,120,62);stop-opacity:1"/><stop offset="0.5" style="stop-color:rgb(241,208,133);stop-opacity:1"/><stop offset="1" style="stop-color:rgb(179,120,62);stop-opacity:1"/></linearGradient>
        <linearGradient id="_Linear8" x1="0" y1="0" x2="1" y2="0" gradientUnits="userSpaceOnUse" gradientTransform="matrix(42.703811,-29.86427,29.86427,42.703811,194.27001,211.970881)"><stop offset="0" style="stop-color:rgb(179,120,62);stop-opacity:1"/><stop offset="0.5" style="stop-color:rgb(241,208,133);stop-opacity:1"/><stop offset="1" style="stop-color:rgb(179,120,62);stop-opacity:1"/></linearGradient>
        <linearGradient id="_Linear9" x1="0" y1="0" x2="1" y2="0" gradientUnits="userSpaceOnUse" gradientTransform="matrix(37.175204,-11.341795,11.341795,37.175204,195.184905,210.867897)"><stop offset="0" style="stop-color:rgb(179,120,62);stop-opacity:1"/><stop offset="0.5" style="stop-color:rgb(241,208,133);stop-opacity:1"/><stop offset="1" style="stop-color:rgb(179,120,62);stop-opacity:1"/></linearGradient>
        <linearGradient id="_Linear10" x1="0" y1="0" x2="1" y2="0" gradientUnits="userSpaceOnUse" gradientTransform="matrix(-36.741912,-12.675332,12.675332,-36.741912,200.188387,213.10491)"><stop offset="0" style="stop-color:rgb(179,120,62);stop-opacity:1"/><stop offset="0.5" style="stop-color:rgb(241,208,133);stop-opacity:1"/><stop offset="1" style="stop-color:rgb(179,120,62);stop-opacity:1"/></linearGradient>
        <linearGradient id="_Linear11" x1="0" y1="0" x2="1" y2="0" gradientUnits="userSpaceOnUse" gradientTransform="matrix(-41.598812,-31.385171,31.385171,-41.598812,199.976491,214.522198)"><stop offset="0" style="stop-color:rgb(179,120,62);stop-opacity:1"/><stop offset="0.5" style="stop-color:rgb(241,208,133);stop-opacity:1"/><stop offset="1" style="stop-color:rgb(179,120,62);stop-opacity:1"/></linearGradient>
        <linearGradient id="_Linear12" x1="0" y1="0" x2="1" y2="0" gradientUnits="userSpaceOnUse" gradientTransform="matrix(-22.274458,-31.850913,31.850913,-22.274458,198.644773,213.992921)"><stop offset="0" style="stop-color:rgb(179,120,62);stop-opacity:1"/><stop offset="0.5" style="stop-color:rgb(241,208,133);stop-opacity:1"/><stop offset="1" style="stop-color:rgb(179,120,62);stop-opacity:1"/></linearGradient>
        <linearGradient id="_Linear13" x1="0" y1="0" x2="1" y2="0" gradientUnits="userSpaceOnUse" gradientTransform="matrix(-15.206405,-49.842304,49.842304,-15.206405,197.640285,215.014982)"><stop offset="0" style="stop-color:rgb(179,120,62);stop-opacity:1"/><stop offset="0.5" style="stop-color:rgb(241,208,133);stop-opacity:1"/><stop offset="1" style="stop-color:rgb(179,120,62);stop-opacity:1"/></linearGradient>
    </defs>
</svg>
